<svg xmlns="http://www.w3.org/2000/svg" width="161" height="44" viewBox="0 0 161 44">
  <g fill="none" fill-rule="evenodd">
    <path fill="#2E9E48" d="M0.149769231,36.6350769 C0.621076923,36.6054615 1.06742308,36.5648462 1.51461538,36.5525769 C3.11765385,36.5073077 4.708,36.3465385 6.28269231,36.0444615 C7.1225,35.8828462 7.95723077,35.6899231 8.79661538,35.5245 C9.04496154,35.475 9.17103846,35.3421538 9.27469231,35.1166538 C10.8768846,31.6199231 12.9076538,28.3943846 15.4490769,25.5035 C16.9408462,23.8069615 18.6031154,22.2974231 20.5441923,21.1174615 C21.9500769,20.2636923 23.4486154,19.6451538 25.0715385,19.3519615 C26.7287308,19.0528462 28.3711154,19.1048846 29.9847308,19.6210385 C31.8928077,20.2319615 33.2563846,21.4851154 34.1973077,23.2269231 C34.4088462,23.6191154 34.5962692,24.024 34.8158462,24.4648462 C34.8869231,24.3620385 34.9431923,24.2909615 34.9888846,24.2126923 C35.6065769,23.1744615 36.2454231,22.1476538 36.8313846,21.0912308 C37.3081923,20.2328077 37.7151923,19.3354615 38.1628077,18.4605385 C39.9388846,14.9875 41.9971538,11.6862308 44.3194231,8.55503846 C45.9952308,6.29623077 47.9388462,4.29253846 50.2471538,2.66157692 C51.5265385,1.75915385 52.8901154,1.00946154 54.3518462,0.444230769 C54.4000769,0.425615385 54.4529615,0.420115385 54.5485769,0.398961538 C53.6647692,1.08265385 52.8143846,1.72488462 51.9826154,2.38911538 C50.8047692,3.33088462 49.7102692,4.36065385 48.7431154,5.52073077 C47.3368077,7.20711538 46.4280385,9.12365385 46.0227308,11.2855769 C45.826,12.3335385 45.6030385,13.3764231 45.3466538,14.4112692 C45.0373846,15.6580769 44.4886538,16.7872692 43.5371538,17.6863077 C42.9300385,18.26 42.2311154,18.7050769 41.5097692,19.1171538 C40.9978462,19.4099231 40.4905769,19.7128462 39.9701923,19.9895385 C39.0153077,20.4968077 38.2871923,21.2469231 37.6589231,22.1074615 C36.8347692,23.2349615 36.1574231,24.4491923 35.5685,25.7116538 C35.4403077,25.9866538 35.2922308,26.0678846 34.9986154,26.0598462 C34.2256538,26.0391154 33.4471923,26.0056923 32.6793077,26.0725385 C31.5065385,26.1749231 30.3320769,26.3107308 29.1728462,26.5163462 C26.1376923,27.0519615 23.3352308,28.2399615 20.6643462,29.7363846 C18.9369231,30.7043846 17.2611154,31.7637692 15.5590769,32.7770385 C14.8834231,33.1793846 14.1988846,33.5681923 13.5194231,33.9646154 C13.4491923,34.0056538 13.3831923,34.0543077 13.3383462,34.1592308 C13.4221154,34.1401923 13.508,34.1300385 13.5883846,34.1021154 C15.4655769,33.4586154 17.2594231,32.6230385 19.0431154,31.7608077 C20.8018462,30.9108462 22.5961154,30.1450769 24.4627308,29.5599615 C25.9248846,29.1009231 27.4136923,28.7535769 28.9274615,28.5136923 C30.3278462,28.2903077 31.7333077,28.1054231 33.1548462,28.0796154 C33.8706923,28.0660769 34.5873846,28.0081154 35.3019615,28.0318077 C37.1427692,28.0931538 38.9713077,28.2750769 40.7698077,28.6947692 C40.8789615,28.7205769 40.9898077,28.7425769 41.096,28.7781154 C41.4543462,28.8986923 41.6070769,29.1901923 41.4577308,29.5362692 C41.3189615,29.8586538 41.1480385,30.1675 40.9728846,30.4708462 C39.9287308,32.2854231 38.8773846,34.0949231 37.8323846,35.9090769 C37.6009615,36.3105769 37.3877308,36.7218077 37.1584231,37.1245769 C37.0336154,37.3437308 36.9033077,37.5616154 36.7531154,37.7646923 C36.4590769,38.1602692 36.0791538,38.3180769 35.5748462,38.2097692 C34.2290385,37.9203846 32.8654615,37.7283077 31.4938462,37.6352308 C30.2474615,37.5510385 28.996,37.5222692 27.7458077,37.6005385 C26.2599615,37.6944615 24.7690385,37.7329615 23.2903846,37.8916154 C21.6598462,38.0676154 20.0390385,38.3417692 18.4165385,38.5896923 C16.918,38.819 15.4253846,39.0800385 13.9272692,39.3059615 C12.9292308,39.457 11.9273846,39.5932308 10.923,39.6964615 C9.64996154,39.8284615 8.37396154,39.8322692 7.09373077,39.7497692 C6.30596154,39.6985769 5.52326923,39.6511923 4.75792308,39.4586923 C3.37107692,39.1096538 2.05869231,38.5858846 0.909615385,37.7126538 C0.7095,37.5611923 0.525884615,37.3830769 0.354961538,37.1965 C0.222961538,37.0530769 0.100269231,36.8893462 0.149769231,36.6350769 Z"/>
    <g fill="#057068" transform="translate(52.462 17.77)">
      <path d="M40.3814231 6.82465385C40.3814231 4.5595 40.3814231 2.376 40.3814231.144692308 41.9180385.144692308 44.9172308.144692308 44.9172308.144692308L44.9172308 19.2563462C44.9172308 19.2563462 42.5052692 19.2707308 41.3253077 19.2402692 41.1577692 19.2356154 40.9635769 19.0443846 40.8387692 18.8916538 40.6378077 18.6466923 40.4846538 18.3623846 40.2925769 18.0670769 40.0658077 18.2189615 39.8745769 18.3217692 39.7138077 18.4588462 38.5947692 19.4086538 37.2773077 19.4801538 35.9255769 19.2711538 34.8061154 19.0981154 33.9895769 18.4233077 33.6185385 17.369 33.3236538 16.5291923 33.0985769 15.6326923 33.0427308 14.7497308 32.9500769 13.3121154 32.9957692 11.8643462 33.0338462 10.4225 33.0486538 9.8505 33.1535769 9.27173077 33.2957308 8.71707692 33.7188077 7.06792308 34.6665 6.29411538 36.3672692 6.17142308 37.4947692 6.09188462 38.5968846 6.22853846 39.6634615 6.6165 39.8563846 6.68715385 40.0598846 6.73242308 40.3814231 6.82465385zM40.3839615 12.5645385C40.3826923 12.5645385 40.3814231 12.5645385 40.3801538 12.5645385 40.3801538 11.8444615 40.3649231 11.1222692 40.3856538 10.4030385 40.4004615 9.88603846 40.1923077 9.62965385 39.6791154 9.49723077 38.2863462 9.13634615 37.6737308 9.49342308 37.5721923 10.9285 37.4926538 12.0390769 37.4960385 13.1648846 37.5721923 14.2754615 37.6559615 15.5129615 38.2994615 15.9258846 39.4845 15.6415769 40.1571923 15.4799615 40.3628077 15.2371154 40.3805769 14.5098462 40.3962308 13.8616923 40.3839615 13.2122692 40.3839615 12.5645385zM52.9671154 25.8157308C52.9671154 19.2766538 52.9671154 12.8945385 52.9671154 6.37661538 54.1610385 6.33938462 55.3384615 6.34446154 56.5150385 6.37365385 56.6872308 6.37873077 56.8881923 6.5505 57.0176538 6.69773077 57.2253846 6.93465385 57.3853077 7.21388462 57.4830385 7.35646154 58.4252308 6.96384615 59.2455769 6.46165385 60.1315 6.28565385 61.9833077 5.91715385 63.7170769 6.64019231 64.3893462 8.69423077 64.5336154 9.13719231 64.6372692 9.60003846 64.7015769 10.0603462 65.0023846 12.2163462 65.0421538 14.3795385 64.5628077 16.5088846 64.1752692 18.2303846 63.1780769 19.4162692 60.9433846 19.3735385 59.9635385 19.3545 58.9989231 19.3100769 58.0808462 18.9204231 57.926 18.854 57.7487308 18.8425769 57.4868462 18.7837692 57.4868462 20.6465769 57.4868462 22.4374615 57.4868462 24.3015385 55.9777308 24.8075385 54.5189615 25.2957692 52.9671154 25.8157308zM57.4851538 13.1428846C57.4838846 13.1428846 57.4838846 13.1428846 57.4826154 13.1428846 57.4826154 13.827 57.4656923 14.5098462 57.4919231 15.1926923 57.5012308 15.4245385 57.5507308 15.7465 57.7051538 15.8624231 58.2268077 16.2537692 58.8694615 16.2271154 59.4676923 16.1141538 59.9487308 16.0240385 60.1484231 15.587 60.1645 15.1330385 60.2118846 13.8130385 60.2326154 12.4917692 60.2436154 11.1700769 60.2453077 10.9619231 60.1678846 10.7431923 60.0883462 10.5456154 59.8480385 9.94992308 59.4160769 9.75530769 58.6803462 9.88519231 57.7800385 10.0438462 57.5160385 10.2689231 57.4902308 10.9864615 57.4648462 11.7048462 57.4851538 12.4249231 57.4851538 13.1428846zM90.9979231 14.4675385C90.9645 15.6039231 91.311 16.0210769 92.4067692 16.0752308 93.2702692 16.1192308 94.1405385 16.1056923 95.0044615 16.0583077 95.8311538 16.0117692 96.6527692 15.8890769 97.5247308 15.7938846 97.5247308 16.7555385 97.5247308 17.7150769 97.5247308 18.8057692 96.5567308 18.9673846 95.6115769 19.2085385 94.655 19.2639615 93.1441923 19.3511154 91.6240769 19.3540769 90.1098846 19.3210769 88.4065769 19.283 87.2985385 18.4723846 86.8530385 16.8295769 86.1321154 14.1722308 86.1245 11.4810385 86.8263846 8.81226923 87.1720385 7.49565385 88.1116923 6.69646154 89.419 6.49465385 91.4201538 6.18623077 93.4433077 6.15661538 95.4402308 6.57461538 96.6168077 6.82042308 97.3580385 7.59084615 97.5615385 8.76276923 97.7193462 9.67957692 97.8166538 10.6255769 97.7815385 11.5533846 97.7151154 13.2909615 96.7069231 14.2564231 94.9625769 14.3401923 93.8820385 14.3913846 92.7976923 14.3638846 91.7154615 14.3841923 91.4730385 14.388 91.2310385 14.4391923 90.9979231 14.4675385zM90.8896154 11.5821538C91.4298846 11.5821538 91.8165769 11.5973846 92.2015769 11.5791923 93.0117692 11.5411154 93.3282308 11.1633077 93.2668846 10.3306923 93.2131538 9.59919231 92.8146154 9.28357692 92.0344615 9.35676923 91.4345385 9.41303846 91.1197692 9.64826923 90.9881923 10.2477692 90.9061154 10.6196538 90.9268462 11.0139615 90.8896154 11.5821538zM103.909385 19.2098077C102.387154 19.2098077 100.958 19.2098077 99.5296923 19.2098077 99.3384615 18.4038462 99.2716154 8.42176923 99.4493077 6.42357692 100.723192 6.42357692 102.005115 6.42357692 103.393231 6.42357692 103.565423 6.84453846 103.764269 7.33023077 104.025731 7.96738462 104.996692 6.57165385 106.207115 5.92180769 107.891385 6.34446154 107.891385 7.76684615 107.891385 9.1575 107.891385 10.6941154 107.324462 10.6941154 106.762615 10.6826923 106.201615 10.6962308 104.309615 10.7398077 103.910654 11.1425769 103.908538 13.0049615 103.907269 14.7010769 103.909385 16.3980385 103.909385 18.0937308 103.909385 18.4478462 103.909385 18.8002692 103.909385 19.2098077z"/>
      <rect width="4.503" height="12.886" x="66.517" y="6.376"/>
      <path d="M18.172 2.30196154C18.1859615 3.48784615 17.1481538 4.53369231 15.9762308 4.5155 14.7971154 4.49773077 13.7787692 3.46203846 13.7817308 2.28546154 13.7842692 1.09746154 14.7095385.121 15.8594615.0922307692 17.1223462.0609230769 18.1567692 1.04965385 18.172 2.30196154zM71.1488462 2.35992308C71.1281154 3.5915 70.1571538 4.53623077 68.9336154 4.51592308 67.7693077 4.49688462 66.8093462 3.45061538 66.8372692 2.23215385 66.8668846.971384615 67.8158462.0499230769 69.0427692.0896923077 70.2421923.128192308 71.17 1.12792308 71.1488462 2.35992308zM24.706 14.4675385C24.6721538 15.6039231 25.0195 16.0210769 26.1148462 16.0752308 26.9787692 16.1192308 27.8490385 16.1056923 28.7125385 16.0583077 29.5392308 16.0117692 30.3608462 15.8890769 31.2332308 15.7938846 31.2332308 16.7555385 31.2332308 17.7150769 31.2332308 18.8057692 30.2652308 18.9673846 29.3200769 19.2085385 28.3635 19.2639615 26.8518462 19.3511154 25.3325769 19.3540769 23.8179615 19.3210769 22.1150769 19.283 21.0066154 18.4723846 20.5611154 16.8295769 19.8397692 14.1722308 19.8325769 11.4810385 20.5344615 8.81226923 20.8805385 7.49565385 21.8201923 6.69646154 23.1266538 6.49465385 25.1278077 6.18623077 27.1509615 6.15661538 29.1487308 6.57461538 30.3253077 6.82042308 31.0669615 7.59084615 31.2691923 8.76276923 31.4278462 9.67957692 31.5247308 10.6255769 31.4896154 11.5533846 31.4236154 13.2909615 30.415 14.2564231 28.6710769 14.3401923 27.5901154 14.3913846 26.5061923 14.3638846 25.4239615 14.3841923 25.1811154 14.388 24.9395385 14.4391923 24.706 14.4675385zM24.5976923 11.5821538C25.1379615 11.5821538 25.5246538 11.5973846 25.9092308 11.5791923 26.7194231 11.5411154 27.0358846 11.1633077 26.9749615 10.3306923 26.9208077 9.59919231 26.5222692 9.28357692 25.7421154 9.35676923 25.1421923 9.41303846 24.827 9.64826923 24.6954231 10.2477692 24.6146154 10.6196538 24.6349231 11.0139615 24.5976923 11.5821538zM.373153846 25.8157308C.373153846 19.2766538.373153846 12.8945385.373153846 6.37661538 1.5675 6.33938462 2.74492308 6.34446154 3.92107692 6.37365385 4.09411538 6.37873077 4.29465385 6.5505 4.42411538 6.69773077 4.63226923 6.93465385 4.79176923 7.21388462 4.88992308 7.35646154 5.83126923 6.96384615 6.65246154 6.46165385 7.53796154 6.28565385 9.39019231 5.91715385 11.1231154 6.64019231 11.7953846 8.69423077 11.9405 9.13719231 12.0437308 9.60003846 12.1080385 10.0603462 12.4084231 12.2163462 12.4486154 14.3795385 11.9696923 16.5088846 11.5821538 18.2303846 10.5849615 19.4162692 8.35026923 19.3735385 7.37042308 19.3545 6.40580769 19.3100769 5.48815385 18.9204231 5.33330769 18.854 5.15603846 18.8425769 4.89415385 18.7837692 4.89415385 20.6465769 4.89415385 22.4374615 4.89415385 24.3015385 3.38419231 24.8075385 1.92542308 25.2957692.373153846 25.8157308zM4.89119231 13.1428846C4.89076923 13.1428846 4.88992308 13.1428846 4.8895 13.1428846 4.8895 13.827 4.87215385 14.5098462 4.89880769 15.1926923 4.90769231 15.4245385 4.95719231 15.7465 5.11161538 15.8624231 5.63326923 16.2537692 6.2755 16.2271154 6.87457692 16.1141538 7.35519231 16.0240385 7.55488462 15.587 7.57138462 15.1330385 7.61876923 13.8130385 7.63907692 12.4917692 7.6505 11.1700769 7.65219231 10.9619231 7.57476923 10.7431923 7.49523077 10.5456154 7.25492308 9.94992308 6.82253846 9.75530769 6.08723077 9.88519231 5.1865 10.0438462 4.9225 10.2689231 4.89711538 10.9864615 4.87173077 11.7048462 4.89119231 12.4249231 4.89119231 13.1428846zM72.798 25.8157308C72.798 19.2766538 72.798 12.8945385 72.798 6.37661538 73.9915 6.33938462 75.1693462 6.34446154 76.3455 6.37365385 76.5185385 6.37873077 76.7190769 6.5505 76.8481154 6.69773077 77.0566923 6.93465385 77.2157692 7.21388462 77.3139231 7.35646154 78.2552692 6.96384615 79.0764615 6.46165385 79.9623846 6.28565385 81.8141923 5.91715385 83.5479615 6.64019231 84.2198077 8.69423077 84.3649231 9.13719231 84.4677308 9.60003846 84.5324615 10.0603462 84.8332692 12.2163462 84.8730385 14.3795385 84.3936923 16.5088846 84.0061538 18.2303846 83.0089615 19.4162692 80.7738462 19.3735385 79.7944231 19.3545 78.8298077 19.3100769 77.9117308 18.9204231 77.7573077 18.854 77.5796154 18.8425769 77.3185769 18.7837692 77.3185769 20.6465769 77.3185769 22.4374615 77.3185769 24.3015385 75.8086154 24.8075385 74.3498462 25.2957692 72.798 25.8157308zM77.3156154 13.1428846C77.3147692 13.1428846 77.3143462 13.1428846 77.3139231 13.1428846 77.3139231 13.827 77.2961538 14.5098462 77.3228077 15.1926923 77.3316923 15.4245385 77.3811923 15.7465 77.5360385 15.8624231 78.0572692 16.2537692 78.6999231 16.2271154 79.299 16.1141538 79.7796154 16.0240385 79.9793077 15.587 79.9953846 15.1330385 80.0431923 13.8130385 80.0630769 12.4917692 80.0749231 11.1700769 80.0766154 10.9619231 79.9996154 10.7431923 79.9196538 10.5456154 79.6793462 9.94992308 79.2469615 9.75530769 78.5116538 9.88519231 77.6109231 10.0438462 77.3469231 10.2689231 77.3215385 10.9864615 77.2961538 11.7048462 77.3156154 12.4249231 77.3156154 13.1428846z"/>
      <rect width="4.503" height="12.886" x="13.979" y="6.376"/>
    </g>
  </g>
</svg>
